<?xml version="1.0" encoding="utf-8"?>
<!-- Generator: Adobe Illustrator 16.0.0, SVG Export Plug-In . SVG Version: 6.00 Build 0)  -->
<!DOCTYPE svg PUBLIC "-//W3C//DTD SVG 1.1//EN" "http://www.w3.org/Graphics/SVG/1.1/DTD/svg11.dtd">
<svg version="1.1" id="Layer_1" xmlns="http://www.w3.org/2000/svg" xmlns:xlink="http://www.w3.org/1999/xlink" x="0px" y="0px"
	 width="720px" height="540px" viewBox="0 0 720 540" enable-background="new 0 0 720 540" xml:space="preserve">
<g>
	<path fill="#010101" d="M365.751,1.895c-147.884,0-267.767,119.882-267.767,267.767c0,147.885,119.88,267.767,267.767,267.767
		c147.882,0,267.764-119.882,267.764-267.767C633.515,121.777,513.636,1.895,365.751,1.895z M446.02,422.74
		c-0.414,21.273-9.003,38.965-25.769,53.07c-16.774,14.112-42.947,21.168-78.532,21.168c-18.403,0-34.261-1.944-47.545-5.832
		c-13.299-3.88-24.235-9.201-32.826-15.948c-8.588-6.751-14.83-14.621-18.71-23.629c-3.891-8.995-5.83-18.61-5.83-28.836v-14.717
		v-124.55v-14.118c0-15.537,3.988-29.646,11.964-42.33c7.975-12.671,19.526-21.673,34.664-26.995
		c7.363-2.454,15.742-5.31,25.154-8.59c9.404-3.268,18.407-6.443,26.995-9.509c8.591-3.068,16.152-5.829,22.703-8.284
		c6.536-2.454,10.629-3.882,12.268-4.294c1.628-0.814,3.775-1.936,6.442-3.375c2.654-1.428,5.213-3.574,7.67-6.442
		c2.451-2.855,4.603-6.134,6.439-9.816c1.839-3.681,2.761-7.976,2.761-12.886v-11.655V46.643h52.151V422.74z"/>
	<path fill="#010101" d="M388.039,214.141c-3.064,2.049-6.241,3.48-9.51,4.295c-6.132,2.049-12.783,4.295-19.934,6.749
		c-7.161,2.452-13.809,4.708-19.942,6.746c-7.364,2.458-14.321,4.914-20.861,7.365c-4.907,2.051-9.614,5.121-14.11,9.205
		c-3.682,3.28-7.055,7.469-10.124,12.581c-3.066,5.118-4.6,11.56-4.6,19.327v3.066v127.002c0.402,5.322,1.534,10.433,3.372,15.341
		c1.843,4.906,4.698,9.201,8.591,12.88c3.881,3.679,9.202,6.65,15.951,8.889c6.749,2.262,15.03,3.379,24.846,3.376
		c10.222,0,18.712-1.114,25.464-3.379c6.749-2.24,12.055-5.211,15.947-8.889c3.889-3.681,6.647-7.767,8.288-12.271
		c1.628-4.498,2.45-8.79,2.45-12.884V283.473v-3.071v-76.077C393.046,208.832,391.107,212.099,388.039,214.141z"/>
</g>
</svg>
