<?xml version="1.0" encoding="utf-8"?>
<!-- Generator: Adobe Illustrator 16.0.0, SVG Export Plug-In . SVG Version: 6.00 Build 0)  -->
<!DOCTYPE svg PUBLIC "-//W3C//DTD SVG 1.1//EN" "http://www.w3.org/Graphics/SVG/1.1/DTD/svg11.dtd">
<svg version="1.1" id="Layer_1" xmlns="http://www.w3.org/2000/svg" xmlns:xlink="http://www.w3.org/1999/xlink" x="0px" y="0px"
	 width="720px" height="540px" viewBox="0 0 720 540" enable-background="new 0 0 720 540" xml:space="preserve">
<g>
	<path fill="#007E84" d="M355.5,4.895c-145.537,0-263.518,117.98-263.518,263.518S209.961,531.93,355.5,531.93
		c145.534,0,263.514-117.979,263.514-263.517S501.039,4.895,355.5,4.895z M434.496,419.062c-0.407,20.935-8.86,38.345-25.359,52.226
		c-16.51,13.891-42.267,20.834-77.286,20.834c-18.113,0-33.718-1.914-46.792-5.738c-13.087-3.821-23.85-9.058-32.303-15.698
		c-8.454-6.642-14.596-14.387-18.416-23.253c-3.829-8.851-5.735-18.313-5.735-28.377V404.57V281.997v-13.892
		c0-15.292,3.923-29.177,11.774-41.659c7.849-12.471,19.216-21.33,34.114-26.566c7.246-2.415,15.492-5.226,24.755-8.454
		c9.254-3.216,18.112-6.34,26.566-9.358c8.453-3.019,15.897-5.737,22.341-8.152c6.433-2.415,10.461-3.821,12.074-4.227
		c1.604-0.801,3.715-1.903,6.342-3.32c2.61-1.405,5.129-3.518,7.547-6.34c2.412-2.81,4.53-6.037,6.335-9.661
		c1.812-3.622,2.719-7.849,2.719-12.68v-11.471V48.933h51.325V419.062z"/>
	<path fill="#007E84" d="M377.436,213.772c-3.019,2.017-6.143,3.425-9.36,4.227c-6.035,2.017-12.579,4.226-19.616,6.641
		c-7.048,2.413-13.589,4.633-19.626,6.639c-7.246,2.419-14.093,4.837-20.529,7.249c-4.83,2.02-9.463,5.039-13.886,9.061
		c-3.624,3.226-6.944,7.349-9.963,12.379c-3.019,5.036-4.528,11.376-4.528,19.02v3.02v124.986c0.397,5.237,1.51,10.265,3.32,15.095
		c1.812,4.829,4.621,9.057,8.453,12.678c3.821,3.618,9.057,6.545,15.7,8.748c6.641,2.225,14.792,3.323,24.451,3.32
		c10.06,0,18.416-1.096,25.06-3.324c6.641-2.202,11.862-5.129,15.695-8.746c3.824-3.624,6.542-7.646,8.156-12.077
		c1.603-4.425,2.412-8.651,2.412-12.68V282.004v-3.021v-74.871C382.361,208.547,380.452,211.764,377.436,213.772z"/>
</g>
</svg>
